<svg width="24" height="24" viewBox="0 0 24 24" fill="none" xmlns="http://www.w3.org/2000/svg">
<path d="M12 0C16 0 19.3469 3.26761 19.3469 7.35211C19.3469 9.80282 18.1224 12.0085 16.1633 13.3155C20.3265 14.8676 23.4286 18.6254 24 23.2H21.8776C21.2245 18.2986 16.9796 14.6225 12 14.6225C7.02041 14.6225 2.77551 18.2986 2.12245 23.2H0C0.571429 18.6254 3.67347 14.8676 7.83673 13.3155C5.87755 12.0085 4.65306 9.80282 4.65306 7.35211C4.65306 3.26761 8 0 12 0ZM12 2.04225C9.06122 2.04225 6.77551 4.41127 6.77551 7.35211C6.77551 10.2113 9.06122 12.5803 12 12.5803C14.9388 12.5803 17.2245 10.2113 17.2245 7.35211C17.2245 4.41127 14.9388 2.04225 12 2.04225Z" fill="#727272"/>
</svg>
