<svg width="28" height="24" viewBox="0 0 28 24" fill="none" xmlns="http://www.w3.org/2000/svg">
<path fill-rule="evenodd" clip-rule="evenodd" d="M24.9091 4.18182H3.09091C2.80158 4.18182 2.5241 4.06688 2.31952 3.8623C2.11493 3.65771 2 3.38024 2 3.09091C2 2.80158 2.11493 2.52411 2.31952 2.31952C2.5241 2.11493 2.80158 2 3.09091 2H24.9091C25.1984 2 25.4759 2.11493 25.6805 2.31952C25.8851 2.52411 26 2.80158 26 3.09091C26 3.38024 25.8851 3.65771 25.6805 3.8623C25.4759 4.06688 25.1984 4.18182 24.9091 4.18182ZM24.9091 13.2727H3.09091C2.80158 13.2727 2.5241 13.1578 2.31952 12.9532C2.11493 12.7486 2 12.4711 2 12.1818C2 11.8925 2.11493 11.615 2.31952 11.4104C2.5241 11.2058 2.80158 11.0909 3.09091 11.0909H24.9091C25.1984 11.0909 25.4759 11.2058 25.6805 11.4104C25.8851 11.615 26 11.8925 26 12.1818C26 12.4711 25.8851 12.7486 25.6805 12.9532C25.4759 13.1578 25.1984 13.2727 24.9091 13.2727ZM3.09091 22.3636H24.9091C25.1984 22.3636 25.4759 22.2487 25.6805 22.0441C25.8851 21.8395 26 21.5621 26 21.2727C26 20.9834 25.8851 20.7059 25.6805 20.5013C25.4759 20.2968 25.1984 20.1818 24.9091 20.1818H3.09091C2.80158 20.1818 2.5241 20.2968 2.31952 20.5013C2.11493 20.7059 2 20.9834 2 21.2727C2 21.5621 2.11493 21.8395 2.31952 22.0441C2.5241 22.2487 2.80158 22.3636 3.09091 22.3636Z" fill="#727272"/>
</svg>
