<svg width="24" height="25" viewBox="0 0 24 25" fill="none" xmlns="http://www.w3.org/2000/svg">
<path fill-rule="evenodd" clip-rule="evenodd" d="M16.622 15.0793L22.073 20.5303C22.4971 20.9543 22.4985 21.6405 22.0695 22.0695C21.6435 22.4955 20.9466 22.4894 20.5303 22.073L15.0793 16.622C11.6555 19.2866 6.70313 19.0454 3.55616 15.8984C0.147947 12.4902 0.147947 6.96437 3.55616 3.55616C6.96437 0.147947 12.4902 0.147947 15.8984 3.55616C19.0454 6.70313 19.2866 11.6555 16.622 15.0793ZM14.3556 14.3556C16.9118 11.7994 16.9118 7.6551 14.3556 5.09894C11.7994 2.54278 7.6551 2.54278 5.09894 5.09894C2.54278 7.6551 2.54278 11.7994 5.09894 14.3556C7.6551 16.9118 11.7994 16.9118 14.3556 14.3556Z" fill="#727272"/>
</svg>
