<svg width="224" height="80" viewBox="0 0 224 80" fill="none" xmlns="http://www.w3.org/2000/svg">
<path d="M51.0355 52.6933C47.7218 52.6933 45.0355 50.007 45.0355 46.6933V30.92H47.7894V46.24C47.7894 48.4491 49.5802 50.24 51.7894 50.24H59.9062V52.6933H51.0355Z" fill="#8F6B53"/>
<path d="M72.15 53C70.9464 53 69.8449 52.7751 68.8454 52.3253C67.8662 51.8756 67.0197 51.2724 66.3057 50.516C65.6122 49.7596 65.0716 48.8804 64.684 47.8787C64.2965 46.8769 64.1027 45.824 64.1027 44.72C64.1027 43.5956 64.2965 42.5324 64.684 41.5307C65.092 40.5289 65.6428 39.6498 66.3363 38.8933C67.0503 38.1369 67.8968 37.5338 68.876 37.084C69.8755 36.6342 70.9668 36.4093 72.15 36.4093C73.3331 36.4093 74.4244 36.6342 75.424 37.084C76.4235 37.5338 77.2701 38.1369 77.9636 38.8933C78.6776 39.6498 79.2283 40.5289 79.6159 41.5307C80.0239 42.5324 80.2279 43.5956 80.2279 44.72C80.2279 45.824 80.0341 46.8769 79.6465 47.8787C79.2589 48.8804 78.7082 49.7596 77.9942 50.516C77.2803 51.2724 76.4235 51.8756 75.424 52.3253C74.4448 52.7751 73.3535 53 72.15 53ZM66.8565 44.7507C66.8565 45.5889 66.9891 46.3658 67.2543 47.0813C67.5399 47.7969 67.9172 48.4204 68.3864 48.952C68.876 49.4836 69.4369 49.9027 70.0693 50.2093C70.7221 50.516 71.4156 50.6693 72.15 50.6693C72.8843 50.6693 73.5677 50.516 74.2 50.2093C74.8528 49.9027 75.424 49.4836 75.9135 48.952C76.4031 48.4 76.7805 47.7662 77.0457 47.0507C77.3312 46.3147 77.474 45.5276 77.474 44.6893C77.474 43.8716 77.3312 43.1049 77.0457 42.3893C76.7805 41.6533 76.4031 41.0196 75.9135 40.488C75.424 39.936 74.8528 39.5067 74.2 39.2C73.5677 38.8933 72.8843 38.74 72.15 38.74C71.4156 38.74 70.7221 38.9036 70.0693 39.2307C69.4369 39.5373 68.876 39.9667 68.3864 40.5187C67.9172 41.0502 67.5399 41.684 67.2543 42.42C66.9891 43.1356 66.8565 43.9124 66.8565 44.7507Z" fill="#8F6B53"/>
<path d="M93.3738 53C92.1703 53 91.0688 52.7751 90.0692 52.3253C89.0901 51.8756 88.2435 51.2724 87.5296 50.516C86.836 49.7596 86.2955 48.8804 85.9079 47.8787C85.5203 46.8769 85.3265 45.824 85.3265 44.72C85.3265 43.5956 85.5203 42.5324 85.9079 41.5307C86.3158 40.5289 86.8666 39.6498 87.5602 38.8933C88.2741 38.1369 89.1207 37.5338 90.0998 37.084C91.0994 36.6342 92.1907 36.4093 93.3738 36.4093C94.5569 36.4093 95.6483 36.6342 96.6478 37.084C97.6473 37.5338 98.4939 38.1369 99.1874 38.8933C99.9014 39.6498 100.452 40.5289 100.84 41.5307C101.248 42.5324 101.452 43.5956 101.452 44.72C101.452 45.824 101.258 46.8769 100.87 47.8787C100.483 48.8804 99.932 49.7596 99.218 50.516C98.5041 51.2724 97.6473 51.8756 96.6478 52.3253C95.6687 52.7751 94.5773 53 93.3738 53ZM88.0803 44.7507C88.0803 45.5889 88.2129 46.3658 88.4781 47.0813C88.7637 47.7969 89.1411 48.4204 89.6102 48.952C90.0998 49.4836 90.6608 49.9027 91.2931 50.2093C91.9459 50.516 92.6395 50.6693 93.3738 50.6693C94.1082 50.6693 94.7915 50.516 95.4239 50.2093C96.0766 49.9027 96.6478 49.4836 97.1374 48.952C97.6269 48.4 98.0043 47.7662 98.2695 47.0507C98.5551 46.3147 98.6979 45.5276 98.6979 44.6893C98.6979 43.8716 98.5551 43.1049 98.2695 42.3893C98.0043 41.6533 97.6269 41.0196 97.1374 40.488C96.6478 39.936 96.0766 39.5067 95.4239 39.2C94.7915 38.8933 94.1082 38.74 93.3738 38.74C92.6395 38.74 91.9459 38.9036 91.2931 39.2307C90.6608 39.5373 90.0998 39.9667 89.6102 40.5187C89.1411 41.0502 88.7637 41.684 88.4781 42.42C88.2129 43.1356 88.0803 43.9124 88.0803 44.7507Z" fill="#8F6B53"/>
<path d="M113.221 53C111.936 53 110.671 52.8058 109.427 52.4173C108.182 52.0084 107.111 51.4258 106.214 50.6693L107.376 48.86C108.315 49.5756 109.253 50.1173 110.192 50.4853C111.13 50.8329 112.119 51.0067 113.16 51.0067C114.322 51.0067 115.24 50.7818 115.913 50.332C116.607 49.8618 116.954 49.2076 116.954 48.3693C116.954 47.9809 116.862 47.6538 116.678 47.388C116.495 47.1018 116.219 46.8564 115.852 46.652C115.485 46.4476 115.016 46.2636 114.445 46.1C113.873 45.9364 113.211 45.7627 112.456 45.5787C111.497 45.3333 110.671 45.0982 109.977 44.8733C109.284 44.6484 108.713 44.3827 108.264 44.076C107.815 43.7693 107.489 43.4013 107.285 42.972C107.081 42.5427 106.979 42.0111 106.979 41.3773C106.979 40.58 107.132 39.8747 107.438 39.2613C107.764 38.6276 108.203 38.1062 108.753 37.6973C109.304 37.268 109.947 36.9511 110.681 36.7467C111.436 36.5218 112.242 36.4093 113.098 36.4093C114.302 36.4093 115.424 36.6036 116.464 36.992C117.504 37.3804 118.382 37.8916 119.096 38.5253L117.872 40.1507C117.198 39.5578 116.444 39.1182 115.607 38.832C114.771 38.5253 113.914 38.372 113.037 38.372C112.058 38.372 111.222 38.5867 110.528 39.016C109.855 39.4249 109.518 40.0893 109.518 41.0093C109.518 41.3773 109.58 41.684 109.702 41.9293C109.845 42.1747 110.069 42.3893 110.375 42.5733C110.681 42.7573 111.069 42.9209 111.538 43.064C112.027 43.2071 112.609 43.3604 113.282 43.524C114.343 43.7693 115.261 44.0249 116.036 44.2907C116.831 44.536 117.484 44.8324 117.994 45.18C118.524 45.5276 118.912 45.9364 119.157 46.4067C119.422 46.8769 119.555 47.4493 119.555 48.124C119.555 49.6164 118.983 50.8022 117.841 51.6813C116.699 52.5604 115.159 53 113.221 53Z" fill="#8F6B53"/>
<path d="M132.716 53C131.512 53 130.411 52.7853 129.411 52.356C128.412 51.9062 127.555 51.3031 126.841 50.5467C126.127 49.7902 125.566 48.9111 125.158 47.9093C124.771 46.8871 124.577 45.8138 124.577 44.6893C124.577 43.5649 124.771 42.5018 125.158 41.5C125.566 40.4982 126.127 39.6191 126.841 38.8627C127.576 38.1062 128.442 37.5133 129.442 37.084C130.442 36.6342 131.543 36.4093 132.747 36.4093C133.95 36.4093 135.041 36.6342 136.021 37.084C137.02 37.5338 137.867 38.1369 138.56 38.8933C139.254 39.6293 139.784 40.4982 140.151 41.5C140.539 42.4813 140.733 43.5036 140.733 44.5667C140.733 44.7916 140.723 44.996 140.702 45.18C140.702 45.364 140.692 45.5071 140.672 45.6093H127.423C127.484 46.4067 127.667 47.1324 127.973 47.7867C128.279 48.4409 128.677 49.0031 129.167 49.4733C129.656 49.9436 130.207 50.3116 130.819 50.5773C131.451 50.8431 132.114 50.976 132.808 50.976C133.297 50.976 133.777 50.9147 134.246 50.792C134.715 50.6489 135.154 50.4649 135.562 50.24C135.97 50.0151 136.327 49.7391 136.633 49.412C136.959 49.0849 137.204 48.7169 137.367 48.308L139.692 48.952C139.427 49.5449 139.06 50.0867 138.591 50.5773C138.142 51.068 137.612 51.4973 137 51.8653C136.408 52.2129 135.745 52.4889 135.011 52.6933C134.277 52.8978 133.512 53 132.716 53ZM138.193 43.616C138.132 42.8596 137.938 42.1644 137.612 41.5307C137.306 40.8764 136.908 40.3244 136.418 39.8747C135.949 39.4249 135.398 39.0773 134.766 38.832C134.134 38.5662 133.461 38.4333 132.747 38.4333C132.033 38.4333 131.359 38.5662 130.727 38.832C130.095 39.0773 129.534 39.4351 129.044 39.9053C128.575 40.3551 128.187 40.8969 127.882 41.5307C127.596 42.1644 127.423 42.8596 127.361 43.616H138.193Z" fill="#8F6B53"/>
<path d="M152.912 52.6933C149.598 52.6933 146.912 50.007 146.912 46.6933V30.92H149.665V46.24C149.665 48.4491 151.456 50.24 153.665 50.24H161.782V52.6933H152.912Z" fill="#8F6B53"/>
<path d="M174.118 53C172.914 53 171.813 52.7853 170.813 52.356C169.814 51.9062 168.957 51.3031 168.243 50.5467C167.529 49.7902 166.968 48.9111 166.56 47.9093C166.173 46.8871 165.979 45.8138 165.979 44.6893C165.979 43.5649 166.173 42.5018 166.56 41.5C166.968 40.4982 167.529 39.6191 168.243 38.8627C168.977 38.1062 169.844 37.5133 170.844 37.084C171.843 36.6342 172.945 36.4093 174.148 36.4093C175.352 36.4093 176.443 36.6342 177.422 37.084C178.422 37.5338 179.269 38.1369 179.962 38.8933C180.656 39.6293 181.186 40.4982 181.553 41.5C181.941 42.4813 182.135 43.5036 182.135 44.5667C182.135 44.7916 182.124 44.996 182.104 45.18C182.104 45.364 182.094 45.5071 182.073 45.6093H168.824C168.886 46.4067 169.069 47.1324 169.375 47.7867C169.681 48.4409 170.079 49.0031 170.568 49.4733C171.058 49.9436 171.609 50.3116 172.221 50.5773C172.853 50.8431 173.516 50.976 174.21 50.976C174.699 50.976 175.179 50.9147 175.648 50.792C176.117 50.6489 176.556 50.4649 176.963 50.24C177.371 50.0151 177.728 49.7391 178.034 49.412C178.361 49.0849 178.606 48.7169 178.769 48.308L181.094 48.952C180.829 49.5449 180.462 50.0867 179.993 50.5773C179.544 51.068 179.014 51.4973 178.402 51.8653C177.81 52.2129 177.147 52.4889 176.413 52.6933C175.678 52.8978 174.913 53 174.118 53ZM179.595 43.616C179.534 42.8596 179.34 42.1644 179.014 41.5307C178.708 40.8764 178.31 40.3244 177.82 39.8747C177.351 39.4249 176.8 39.0773 176.168 38.832C175.536 38.5662 174.862 38.4333 174.148 38.4333C173.435 38.4333 172.761 38.5662 172.129 38.832C171.497 39.0773 170.936 39.4351 170.446 39.9053C169.977 40.3551 169.589 40.8969 169.283 41.5307C168.998 42.1644 168.824 42.8596 168.763 43.616H179.595Z" fill="#8F6B53"/>
<path d="M192.135 53C191.38 53 190.676 52.8773 190.023 52.632C189.371 52.3662 188.799 52.0084 188.31 51.5587C187.841 51.1089 187.463 50.5876 187.178 49.9947C186.913 49.3813 186.78 48.7169 186.78 48.0013C186.78 47.2653 186.943 46.6009 187.27 46.008C187.596 45.3947 188.055 44.8733 188.646 44.444C189.258 44.0147 189.972 43.6773 190.788 43.432C191.625 43.1867 192.532 43.064 193.512 43.064C194.287 43.064 195.072 43.1356 195.868 43.2787C196.663 43.4218 197.367 43.616 197.979 43.8613V42.5733C197.979 41.2649 197.612 40.2427 196.877 39.5067C196.143 38.7502 195.103 38.372 193.756 38.372C192.145 38.372 190.452 38.9956 188.677 40.2427L187.79 38.4947C189.85 37.1044 191.92 36.4093 194.001 36.4093C196.102 36.4093 197.734 36.9716 198.897 38.096C200.08 39.2204 200.671 40.8049 200.671 42.8493V49.3813C200.671 50.0151 200.957 50.3422 201.528 50.3627V52.6933C201.243 52.7342 201.008 52.7649 200.824 52.7853C200.641 52.8058 200.447 52.816 200.243 52.816C199.713 52.816 199.284 52.6627 198.958 52.356C198.652 52.0289 198.468 51.6404 198.407 51.1907L198.346 50.056C197.632 51.0169 196.724 51.7529 195.623 52.264C194.542 52.7547 193.379 53 192.135 53ZM192.838 50.976C193.797 50.976 194.684 50.8022 195.5 50.4547C196.337 50.0867 196.969 49.6062 197.398 49.0133C197.785 48.6249 197.979 48.2262 197.979 47.8173V45.456C196.673 44.9449 195.317 44.6893 193.909 44.6893C192.563 44.6893 191.461 44.9756 190.605 45.548C189.768 46.1204 189.35 46.8667 189.35 47.7867C189.35 48.2364 189.432 48.6556 189.595 49.044C189.779 49.4324 190.023 49.7698 190.329 50.056C190.656 50.3422 191.033 50.5671 191.461 50.7307C191.89 50.8942 192.349 50.976 192.838 50.976Z" fill="#8F6B53"/>
<path d="M208.621 52.6933V38.8013H206.449V36.6853H208.621V36.348C208.621 34.3649 209.06 32.8111 209.937 31.6867C210.814 30.5622 212.007 30 213.517 30C214.149 30 214.771 30.092 215.383 30.276C215.995 30.4396 216.546 30.6747 217.036 30.9813L216.362 32.9747C216.077 32.7702 215.72 32.6067 215.291 32.484C214.883 32.3613 214.475 32.3 214.067 32.3C213.17 32.3 212.487 32.6373 212.017 33.312C211.548 33.9867 211.314 34.968 211.314 36.256V36.6853H215.567V38.8013H211.314V52.6933H208.621Z" fill="#8F6B53"/>
<path d="M14.4468 56.6692C14.5084 56.7734 14.3425 56.9309 14.2503 56.8525C10.4401 53.6124 6.31609 49.2062 5.26839 43.9483C4.14252 38.2982 8.01816 32.3723 10.6454 28.1997C11.9501 26.1276 13.1362 24.2438 13.6229 22.5375C14.3821 19.8756 14.6487 17.1738 14.7789 15.1151C14.8248 14.3896 16.0308 14.1224 16.3669 14.7694C18.8094 19.4717 22.3479 28.2561 22 34.5C21.6681 40.4562 20.5101 43.3708 19.9875 46.197C19.6802 47.8588 19.4474 49.1177 19.4155 50.1363C19.35 52.2279 19.297 56.2517 23.263 59.7624C26.1179 62.2895 29.2023 63.3989 31.4939 64.2231V64.2231C32.2279 64.4871 32.4832 65.3745 32.0158 65.999L31.9742 66.0547C31.6443 66.4954 31.0668 66.6665 30.5556 66.4622C28.7975 65.7595 24.7011 64.03 21.5801 62C17.4963 59.3437 14.3154 55.5956 15.5391 47.5921C15.6585 46.8109 15.8214 45.947 16 45C16.6247 41.6872 19 37.4928 19 32C19 26.5072 17.5502 23.9538 16.6588 21.1123C16.4259 20.3701 16.2055 20.6372 16.1304 20.9986C15.5905 23.5996 14.3839 27.1462 11.8922 31.1965C8.00595 37.5136 8.2503 41.9685 9.1134 46.3C9.75034 49.4965 11.9131 52.4503 13.6527 55.3419C13.916 55.7795 14.1817 56.2211 14.4468 56.6692V56.6692Z" fill="#8F6B53"/>
</svg>
