<svg width="94" height="159" viewBox="0 0 94 159" fill="none" xmlns="http://www.w3.org/2000/svg">
<path d="M36.6796 116.935C36.8361 117.199 36.4148 117.6 36.1807 117.4C26.5068 109.174 16.0362 97.9868 13.3761 84.6374C10.5176 70.2921 20.3577 55.2466 27.028 44.6526C30.3405 39.3916 33.352 34.6087 34.5877 30.2765C36.5154 23.518 37.1924 16.6583 37.5228 11.4315C37.6393 9.58942 40.7014 8.91092 41.5547 10.5537C47.756 22.4926 56.7401 44.7957 55.8568 60.6486C55.0142 75.771 52.0741 83.171 50.7473 90.3466C49.967 94.5659 49.376 97.7622 49.295 100.348C49.1286 105.659 48.994 115.875 59.0634 124.788C66.3118 131.205 74.1429 134.021 79.9613 136.114V136.114C81.8248 136.784 82.4731 139.037 81.2864 140.623L81.1806 140.764C80.3431 141.883 78.8768 142.317 77.579 141.799C73.1153 140.015 62.7147 135.624 54.7907 130.47C44.4221 123.725 36.346 114.209 39.4529 93.8888C39.7561 91.9054 40.1698 89.7118 40.6231 87.3075C42.2091 78.8965 48.2399 68.2472 48.2399 54.3013C48.2399 40.3553 44.5589 33.8724 42.2957 26.658C41.7046 24.7736 41.1448 25.4518 40.9543 26.3693C39.5835 32.9732 36.52 41.9778 30.1937 52.2612C20.3267 68.3001 20.9471 79.6106 23.1384 90.6081C24.7556 98.7239 30.2467 106.224 34.6635 113.565C35.3319 114.676 36.0065 115.797 36.6796 116.935V116.935Z" fill="#8F6B53"/>
</svg>
