<svg width="24" height="24" viewBox="0 0 24 24" fill="none" xmlns="http://www.w3.org/2000/svg">
<path fill-rule="evenodd" clip-rule="evenodd" d="M21.5829 13.2086C22.2503 13.2086 22.7914 12.6675 22.7914 12V12C22.7914 11.3325 22.2503 10.7914 21.5829 10.7914L13.2086 10.7914L13.2086 2.41714C13.2086 1.74967 12.6675 1.20857 12 1.20857V1.20857C11.3325 1.20857 10.7914 1.74967 10.7914 2.41714L10.7914 10.7914L2.41714 10.7914C1.74967 10.7914 1.20857 11.3325 1.20857 12V12C1.20857 12.6675 1.74967 13.2086 2.41714 13.2086L10.7914 13.2086L10.7914 21.5829C10.7914 22.2503 11.3325 22.7914 12 22.7914V22.7914C12.6675 22.7914 13.2086 22.2503 13.2086 21.5829L13.2086 13.2086L21.5829 13.2086Z" fill="#A9A9A9"/>
</svg>
