<svg width="24" height="25" viewBox="0 0 24 25" fill="none" xmlns="http://www.w3.org/2000/svg">
<path fill-rule="evenodd" clip-rule="evenodd" d="M9.27244 5.34229H22.851C23.0238 5.34218 23.1944 5.38056 23.3501 5.45457C23.5058 5.52857 23.6425 5.6363 23.7502 5.76971C23.8578 5.90312 23.9335 6.05879 23.9717 6.22509C24.0098 6.39139 24.0094 6.56405 23.9706 6.73019L22.2768 13.8963C22.0804 14.773 21.5862 15.5572 20.8761 16.1187C20.166 16.6803 19.2827 16.9854 18.3726 16.9837H8.95666C8.04173 16.9919 7.1517 16.6897 6.43569 16.1277C5.71969 15.5656 5.22121 14.7778 5.02377 13.8963L2.81331 4.26596H0V2H3.73194C3.99171 1.99984 4.24385 2.08658 4.4472 2.24606C4.65054 2.40554 4.79308 2.62833 4.85153 2.87806L7.26294 13.3864C7.34831 13.766 7.56302 14.1053 7.87125 14.3475C8.17949 14.5898 8.5626 14.7205 8.95666 14.7177H18.3726C18.7618 14.714 19.1382 14.5804 19.4405 14.3387C19.7429 14.0969 19.9534 13.7613 20.0377 13.3864L21.4156 7.60825H9.27244V5.34229ZM8.66954 23.3566C9.87449 23.3566 10.8513 22.3928 10.8513 21.2039C10.8513 20.015 9.87449 19.0513 8.66954 19.0513C7.4646 19.0513 6.48779 20.015 6.48779 21.2039C6.48779 22.3928 7.4646 23.3566 8.66954 23.3566ZM17.5116 23.3566C18.7165 23.3566 19.6933 22.3928 19.6933 21.2039C19.6933 20.015 18.7165 19.0513 17.5116 19.0513C16.3066 19.0513 15.3298 20.015 15.3298 21.2039C15.3298 22.3928 16.3066 23.3566 17.5116 23.3566Z" fill="#727272"/>
</svg>
