<svg width="24" height="24" viewBox="0 0 24 24" fill="none" xmlns="http://www.w3.org/2000/svg">
<path fill-rule="evenodd" clip-rule="evenodd" d="M20.9929 5.02143C21.5491 4.4652 21.5491 3.56337 20.9929 3.00714V3.00714C20.4366 2.45091 19.5348 2.45091 18.9786 3.00714L12 9.98571L5.02143 3.00714C4.4652 2.45091 3.56337 2.45091 3.00714 3.00714V3.00714C2.45091 3.56337 2.45091 4.4652 3.00714 5.02143L9.98571 12L3.00714 18.9786C2.45091 19.5348 2.45091 20.4366 3.00714 20.9929V20.9929C3.56337 21.5491 4.4652 21.5491 5.02143 20.9929L12 14.0143L18.9786 20.9929C19.5348 21.5491 20.4366 21.5491 20.9929 20.9929V20.9929C21.5491 20.4366 21.5491 19.5348 20.9929 18.9786L14.0143 12L20.9929 5.02143Z" fill="#8F6B53"/>
</svg>
