<svg width="80" height="80" viewBox="0 0 80 80" fill="none" xmlns="http://www.w3.org/2000/svg">
<path fill-rule="evenodd" clip-rule="evenodd" d="M37.1742 3.47803H37.1753C39.8689 3.47803 42.0717 5.66417 42.0717 8.33635V54.6951C46.2334 56.5519 49.1332 60.7014 49.1332 65.5245C49.1332 72.0787 43.7793 77.3911 37.1753 77.3911C30.5712 77.3911 25.2173 72.0787 25.2173 65.5245C25.2173 60.7014 28.116 56.5508 32.2789 54.6951V8.33635C32.2789 5.66417 34.4806 3.47803 37.1742 3.47803V3.47803ZM49.8238 47.9075H44.8716V43.2666H49.8238V47.9075ZM54.7825 14.9406H44.8716V10.2997H54.7825V14.9406ZM49.8238 21.5363H44.8716V16.8954H49.8238V21.5363ZM54.7825 28.1267H44.8716V23.4858H54.7825V28.1267ZM49.8238 34.7161H44.8716V30.0752H49.8238V34.7161ZM54.7825 41.3001H44.8716V36.6592H54.7825V41.3001Z" fill="#A9A9A9"/>
</svg>
