<svg width="80" height="80" viewBox="0 0 80 80" fill="none" xmlns="http://www.w3.org/2000/svg">
<path d="M70.4234 9.57503C64.8534 4.00727 54.5814 5.23651 47.4922 12.3228C42.5009 17.312 40.4031 23.8921 41.6328 29.3153C42.0669 31.3399 41.4158 33.4369 39.8967 34.8107L7.34454 63.7341C4.59569 66.1203 4.52335 70.3142 7.05519 72.9173C9.65936 75.5204 13.855 75.3758 16.2421 72.6281L45.1774 40.0169C46.5518 38.4984 48.6496 37.8477 50.6751 38.2815C56.1005 39.5108 62.6832 37.4138 67.6746 32.4245C74.7637 25.4106 75.9934 15.1428 70.4234 9.57503ZM66.5171 16.5166C65.7214 17.312 64.347 17.312 63.5513 16.5166C61.9598 14.9259 57.4749 15.7213 54.2197 19.0474C53.4239 19.8428 52.0495 19.8428 51.2538 19.0474C50.3857 18.1797 50.4581 16.8782 51.2538 16.0828C56.1004 11.2381 63.1173 10.0812 66.5895 13.552C67.3129 14.3474 67.3129 15.6489 66.5171 16.5166Z" fill="#A9A9A9"/>
</svg>
