<svg width="80" height="80" viewBox="0 0 80 80" fill="none" xmlns="http://www.w3.org/2000/svg">
<path fill-rule="evenodd" clip-rule="evenodd" d="M58.7901 16.6571C58.7901 15.6478 57.925 14.7827 56.9157 14.7827H22.744C21.7347 14.7827 20.8696 15.6478 20.8696 16.6571C20.8696 17.6664 21.7347 18.5315 22.744 18.5315H56.8436C57.925 18.4594 58.7901 17.6664 58.7901 16.6571ZM53.239 25.1641V19.9014H26.4207V25.1641C26.4207 31.4361 30.6742 36.8431 36.802 38.2128C37.6671 38.4291 38.3159 39.2221 38.3159 40.0872C38.3159 40.9523 37.6671 41.7453 36.802 41.9616C30.6742 43.3314 26.4207 48.7383 26.4207 55.0103V60.273H53.239V55.0103C53.239 48.7383 48.9856 43.3314 42.8577 41.9616C41.9926 41.7453 41.3438 40.9523 41.3438 40.0872C41.3438 39.2221 41.9926 38.4291 42.8577 38.2128C48.9135 36.771 53.239 31.4361 53.239 25.1641ZM22.8161 65.3914C21.8068 65.3914 20.9417 64.5263 20.9417 63.517C20.9417 62.5077 21.7347 61.7147 22.744 61.7147H56.9157C57.925 61.7147 58.7901 62.5077 58.7901 63.517C58.7901 64.5263 57.925 65.3914 56.9157 65.3914H22.8161Z" fill="#A9A9A9"/>
</svg>
