<svg width="16" height="15" viewBox="0 0 16 15" fill="none" xmlns="http://www.w3.org/2000/svg">
<path fill-rule="evenodd" clip-rule="evenodd" d="M7.99999 0L7.47426 1.61803L6.20387 5.52786H2.09284H0.391541L1.76792 6.52786L5.09382 8.94427L3.82344 12.8541L3.2977 14.4721L4.67409 13.4721L7.99999 11.0557L11.3259 13.4721L12.7023 14.4721L12.1765 12.8541L10.9062 8.94427L14.2321 6.52786L15.6084 5.52786H13.9071H9.7961L8.52572 1.61803L7.99999 0ZM7.99999 9.81966L8.58778 10.2467L10.8002 11.8541L9.95511 9.25329L9.73059 8.56231L10.3184 8.13525L12.5308 6.52786H9.7961H9.06956L8.84505 5.83688L7.99999 3.23607L7.99999 3.23609V5.52786V8L7.99999 9.5V9.81966Z" fill="#C7A886"/>
</svg>
